<svg width="24" height="24" viewBox="0 0 24 24" fill="none" xmlns="http://www.w3.org/2000/svg">
<path d="M7.75 3.5C7.75 4.74264 8.75736 5.75 10 5.75H14C15.2426 5.75 16.25 4.74264 16.25 3.5V1.25H18C19.5188 1.25 20.75 2.48122 20.75 4V20C20.75 21.5188 19.5188 22.75 18 22.75H6C4.48122 22.75 3.25 21.5188 3.25 20V4C3.25 2.48122 4.48122 1.25 6 1.25H7.75V3.5ZM8 14.25C7.58579 14.25 7.25 14.5858 7.25 15C7.25 15.4142 7.58579 15.75 8 15.75H12C12.4142 15.75 12.75 15.4142 12.75 15C12.75 14.5858 12.4142 14.25 12 14.25H8ZM8 10.25C7.58579 10.25 7.25 10.5858 7.25 11C7.25 11.4142 7.58579 11.75 8 11.75H16C16.4142 11.75 16.75 11.4142 16.75 11C16.75 10.5858 16.4142 10.25 16 10.25H8ZM14.75 3.5C14.75 3.91421 14.4142 4.25 14 4.25H10C9.58579 4.25 9.25 3.91421 9.25 3.5V1.25H14.75V3.5Z" fill="#0000D2"/>
</svg>
