<svg width="80" height="80" viewBox="0 0 80 80" fill="none" xmlns="http://www.w3.org/2000/svg">
<path d="M63.1521 64.2459C60.2364 68.5856 57.1449 72.8204 52.4376 72.8904C47.7302 72.9953 46.2196 70.1255 40.8799 70.1255C35.5051 70.1255 33.854 72.8204 29.3924 72.9953C24.7905 73.1703 21.3126 68.3756 18.3617 64.1409C12.3546 55.4965 7.75258 39.5726 13.9354 28.8633C16.9917 23.5436 22.4719 20.1839 28.4088 20.0789C32.9055 20.0089 37.1913 23.1237 39.9666 23.1237C42.7067 23.1237 47.9059 19.3789 53.3509 19.9389C55.6344 20.0439 62.028 20.8488 66.1381 26.8684C65.822 27.0784 58.515 31.3481 58.5853 40.2025C58.6906 50.7718 67.8946 54.3066 68 54.3416C67.8946 54.5866 66.5246 59.3813 63.1521 64.2459ZM43.0931 8.24965C45.6576 5.34484 49.9082 3.13999 53.4212 3C53.8779 7.09473 52.2268 11.2245 49.7677 14.1643C47.3438 17.1391 43.339 19.4489 39.4045 19.1339C38.8775 15.1092 40.8448 10.9095 43.0931 8.24965Z" fill="black"/>
</svg>
