<svg width="24" height="24" viewBox="0 0 24 24" fill="none" xmlns="http://www.w3.org/2000/svg">
<g clip-path="url(#clip0_567_8479)">
<mask id="mask1_567_8479" style="mask-type:alpha" maskUnits="userSpaceOnUse" x="0" y="0" width="24" height="24">
<path d="M12 24C18.6274 24 24 18.6274 24 12C24 5.37259 18.6274 0 12 0C5.37259 0 0 5.37259 0 12C0 18.6274 5.37259 24 12 24Z" fill="#231D9A"/>
</mask>
<g mask="url(#mask1_567_8479)">
<path d="M24 0H0V24H24V0Z" fill="#231D9A"/>
<path d="M5.98192 16.0024L3.98438 18L5.98192 19.9975L7.97948 18L5.98192 16.0024Z" fill="white"/>
<path d="M14.5178 7.49512L13.2627 8.75024L14.5178 10.0053L15.7729 8.75024L14.5178 7.49512Z" fill="white"/>
<path d="M18.0178 3.49518L16.7627 4.75029L18.0178 6.00538L19.2729 4.75029L18.0178 3.49518Z" fill="white"/>
<path d="M18.0178 17.4949L16.7627 18.75L18.0178 20.0051L19.2729 18.75L18.0178 17.4949Z" fill="white"/>
<path d="M21.0178 6.99506L19.7627 8.25018L21.0178 9.50527L22.2729 8.25018L21.0178 6.99506Z" fill="white"/>
<path d="M19.0003 10.5079L18.2578 11.2504L19.0003 11.9929L19.7427 11.2504L19.0003 10.5079Z" fill="white"/>
<mask id="mask2_567_8479" style="mask-type:alpha" maskUnits="userSpaceOnUse" x="0" y="0" width="12" height="11">
<path d="M11.5125 0H0V10.5H11.5125V0Z" fill="#D9D9D9"/>
</mask>
<g mask="url(#mask2_567_8479)">
<path d="M4.43295 3.31269V3.19289L-0.837893 -0.281067C-1.07856 0.0170821 -1.3726 0.350723 -1.55664 0.677265L2.51628 3.31268L4.43295 3.31269Z" fill="#F0263C"/>
<path d="M4.31344 2.64181L-0.226822 -0.364989C-0.334635 -0.245197 -0.442446 -0.125406 -0.538281 -0.00561428L4.3254 3.20483V3.31264H2.73218L-1.07734 0.796989C-1.14922 0.940738 -1.22109 1.08449 -1.29297 1.22824L1.86968 3.31264H1.02515H-0.142962C-0.1789 3.46837 -0.214837 3.62409 -0.238795 3.79181H4.79258V-1.23944C4.62488 -1.21548 4.46914 -1.17954 4.3134 -1.14361L4.31344 2.64181Z" fill="white"/>
<path d="M-0.238734 5.7085C-0.214775 5.8762 -0.178838 6.03193 -0.1429 6.18763H1.86974L-1.34082 8.31992C-1.28093 8.46366 -1.20905 8.6074 -1.1252 8.75117L2.73224 6.18763H4.31349V6.28348L-0.59811 9.54178C-0.502279 9.67356 -0.394467 9.79333 -0.286653 9.90115L4.31349 6.85847V10.5241C4.46922 10.56 4.62496 10.5959 4.79266 10.6199V6.53503V5.96005V5.7085H-0.238734Z" fill="white"/>
<path d="M11.74 3.79185C11.7161 3.62413 11.6801 3.4684 11.6442 3.31267H9.63192L12.339 1.5158C12.2671 1.37205 12.2072 1.2283 12.1233 1.08455L8.76942 3.31267H7.18816V3.21684L11.9556 0.0782956C11.8598 -0.0534749 11.752 -0.173267 11.6442 -0.281079L7.18816 2.64184V-1.11962C7.03242 -1.15556 6.87672 -1.1915 6.70898 -1.21545V2.96528V3.54028V3.79185H11.74Z" fill="white"/>
<path d="M6.70902 5.7085L6.70898 10.7397C6.87672 10.7158 7.03242 10.6798 7.18816 10.6439V6.85847L11.5484 9.66156C11.6562 9.54178 11.764 9.42201 11.8598 9.3022L7.18816 6.28348V6.18763H8.76942L12.0036 8.29596C12.0754 8.15218 12.1473 8.00845 12.2192 7.86471L9.63192 6.18763H11.6442C11.6801 6.03193 11.7161 5.8762 11.74 5.7085H6.70902Z" fill="white"/>
<path d="M12.2197 1.03654C12.064 0.761016 11.8843 0.485493 11.6926 0.245911L7.18848 3.21676V3.31259H8.76974L12.2197 1.03654Z" fill="#F0263C"/>
<path d="M-0.765625 8.51163C-0.609895 8.78715 -0.430206 9.0627 -0.238541 9.30225L4.31354 6.2835V6.18768H2.7323L-0.765625 8.51163Z" fill="#F0263C"/>
<path d="M7.18848 6.18768V6.2835L11.5729 9.13455C11.7765 8.883 11.9442 8.61945 12.0999 8.34393L8.76974 6.18768H7.18848Z" fill="#F0263C"/>
<path d="M11.6203 3.79175H6.70886V3.54018V2.96518V-1.1197C6.39739 -1.17959 6.07395 -1.20355 5.75051 -1.20355C5.42708 -1.20355 5.10364 -1.17959 4.7922 -1.1197V3.79175H-0.119271C-0.179167 4.10319 -0.203125 4.42663 -0.203125 4.75006C-0.203125 5.0735 -0.179167 5.39694 -0.119271 5.70841H4.7922L4.79216 10.6199C5.10364 10.6678 5.42708 10.7037 5.75051 10.7037C6.07395 10.7037 6.39739 10.6798 6.70886 10.6199V5.70841H11.6203C11.6682 5.39694 11.7042 5.0735 11.7042 4.75006C11.7042 4.42663 11.6802 4.10319 11.6203 3.79175Z" fill="#F0263C"/>
</g>
</g>
</g>
<defs>
<clipPath id="clip0_567_8479">
<rect width="24" height="24" rx="12" fill="white"/>
</clipPath>
</defs>
</svg>
