<svg width="16" height="16" viewBox="0 0 16 16" fill="none" xmlns="http://www.w3.org/2000/svg">
<path d="M4.00065 13.3348C5.47341 13.3348 6.66732 12.1414 6.66732 10.6694C6.66732 9.19742 5.47341 8.00415 4.00065 8.00415C2.52789 8.00415 1.33398 9.19742 1.33398 10.6694C1.33398 12.1414 2.52789 13.3348 4.00065 13.3348Z" stroke="#757E8A" stroke-linecap="round" stroke-linejoin="round"/>
<path d="M12.0007 13.3348C13.4734 13.3348 14.6673 12.1414 14.6673 10.6694C14.6673 9.19742 13.4734 8.00415 12.0007 8.00415C10.5279 8.00415 9.33398 9.19742 9.33398 10.6694C9.33398 12.1414 10.5279 13.3348 12.0007 13.3348Z" stroke="#757E8A" stroke-linecap="round" stroke-linejoin="round"/>
<path d="M4 10.6697H7.33333L10.6667 5.33911" stroke="#757E8A" stroke-linecap="round" stroke-linejoin="round"/>
<path d="M8.33398 9.00418L4.66732 4.6731M4.66732 4.6731H3.33398M4.66732 4.6731H6.66732" stroke="#757E8A" stroke-linecap="round" stroke-linejoin="round"/>
<path d="M12.0013 10.6691L10.0061 2.67357C10.005 2.66922 10.0083 2.66505 10.0128 2.66529C11.1418 2.72523 12.8865 2.60105 13.3321 4.15013" stroke="#757E8A" stroke-linecap="round" stroke-linejoin="round"/>
</svg>
