<svg width="24" height="24" viewBox="0 0 24 24" fill="none" xmlns="http://www.w3.org/2000/svg">
<path d="M2.00244 8.5L2 18.9995C1.99975 20.1043 2.89525 21 4 21H20.0025C21.107 21 22.0025 20.1046 22.0025 19L22.0024 8.5" stroke="#C7CED6" stroke-width="1.5" stroke-linecap="round" stroke-linejoin="round"/>
<path d="M15.5 6.5V4.5C15.5 3.67157 14.8285 3 14 3H10C9.17157 3 8.5 3.67157 8.5 4.5V6.5" stroke="#C7CED6" stroke-width="1.5" stroke-linecap="round" stroke-linejoin="round"/>
<path d="M2 8.4998V9.50039C2 11.1572 3.34314 12.5004 5 12.5004H18.9994C20.6563 12.5004 21.9994 11.1572 21.9994 9.50029L21.9993 8.5C21.9993 7.39543 21.1039 6.5 19.9993 6.5H4C2.89551 6.5 2.00011 7.39531 2 8.4998Z" stroke="#C7CED6" stroke-width="1.5" stroke-linecap="round" stroke-linejoin="round"/>
<path d="M10 12.5V14.5C10 15.0523 10.4478 15.5 11 15.5H13C13.5523 15.5 14 15.0523 14 14.5V12.5" stroke="#C7CED6" stroke-width="1.5" stroke-linecap="round" stroke-linejoin="round"/>
</svg>
