<svg width="16" height="16" viewBox="0 0 16 16" fill="none" xmlns="http://www.w3.org/2000/svg">
<path d="M1.33398 3.33325H2.66732M2.66732 3.33325H8.97312C9.40818 3.33325 9.81592 3.54553 10.0655 3.90197L12.0007 6.66659L13.9303 7.63139C14.382 7.85725 14.6673 8.31892 14.6673 8.82399V10.6666C14.6673 11.0348 14.3689 11.3333 14.0007 11.3333H12.6673M2.66732 3.33325L1.33398 6.33325V10.2546C1.33398 10.5071 1.47665 10.7379 1.70251 10.8509L2.52655 11.2629C2.61912 11.3092 2.7212 11.3333 2.8247 11.3333H3.33398M10.0007 11.3333H6.00065" stroke="#757E8A" stroke-linecap="round" stroke-linejoin="round"/>
<path d="M6.00065 11.3333C6.00065 12.0697 5.4037 12.6667 4.66732 12.6667C3.93094 12.6667 3.33398 12.0697 3.33398 11.3333C3.33398 10.5969 3.93094 10 4.66732 10C5.4037 10 6.00065 10.5969 6.00065 11.3333Z" stroke="#757E8A" stroke-linecap="round" stroke-linejoin="round"/>
<path d="M12.6667 11.3333C12.6667 12.0697 12.0697 12.6667 11.3333 12.6667C10.5969 12.6667 10 12.0697 10 11.3333C10 10.5969 10.5969 10 11.3333 10C12.0697 10 12.6667 10.5969 12.6667 11.3333Z" stroke="#757E8A" stroke-linecap="round" stroke-linejoin="round"/>
<path d="M1.33398 6.66675H12.0007" stroke="#757E8A" stroke-linecap="round" stroke-linejoin="round"/>
<path d="M6 6.66659V3.33325" stroke="#757E8A" stroke-linecap="round" stroke-linejoin="round"/>
<path d="M12.0007 6.66675H1.33398" stroke="#757E8A" stroke-linecap="round" stroke-linejoin="round"/>
<path d="M6 3.33325V6.66659" stroke="#757E8A" stroke-linecap="round" stroke-linejoin="round"/>
</svg>
