<svg width="80" height="80" viewBox="0 0 80 80" fill="none" xmlns="http://www.w3.org/2000/svg">
<g clip-path="url(#clip0_1045_16261)">
<path d="M59.3756 40C59.3787 44.5595 57.7725 48.9737 54.8401 52.4651C51.9078 55.9565 47.8373 58.301 43.3458 59.0856C38.8544 59.8702 34.2301 59.0445 30.2877 56.754C26.3454 54.4635 23.3378 50.8552 21.7949 46.5648L10.7129 55.4303C14.1588 61.9806 19.7001 67.1875 26.452 70.2196C33.2039 73.2516 40.777 73.9339 47.9621 72.1576C55.1473 70.3812 61.53 66.2486 66.0912 60.4196C70.6524 54.5906 73.1291 47.4015 73.1256 40" fill="#00AC47"/>
<path d="M59.3751 40C59.3726 43.0825 58.6335 46.1198 57.2195 48.8588C55.8055 51.5979 53.7575 53.9594 51.2461 55.7468L62.2021 64.5115C65.6376 61.4184 68.3851 57.6382 70.2667 53.4158C72.1484 49.1933 73.1222 44.6227 73.1251 40" fill="#4285F4"/>
<path d="M20.625 40C20.6298 37.7604 21.0255 35.5388 21.7942 33.4353L10.7122 24.5698C8.19246 29.3227 6.875 34.6204 6.875 40C6.875 45.3796 8.19246 50.6773 10.7122 55.4303L21.7942 46.5648C21.0255 44.4612 20.6298 42.2396 20.625 40Z" fill="#FFBA00"/>
<path d="M40.0006 20.625C44.1003 20.6262 48.0925 21.9363 51.3956 24.3645L61.5456 14.8913C57.7778 11.6427 53.325 9.28692 48.5194 7.99983C43.7139 6.71274 38.6797 6.52753 33.7926 7.45804C28.9055 8.38854 24.2916 10.4107 20.2952 13.3737C16.2989 16.3367 13.0233 20.1639 10.7129 24.5698L21.7949 33.4353C23.1464 29.6887 25.6189 26.4492 28.8763 24.1572C32.1336 21.8652 36.0177 20.632 40.0006 20.625Z" fill="#EA4435"/>
<path d="M73.125 37.5V40L67.5 48.75H41.25V35H70.625C71.288 35 71.9239 35.2634 72.3928 35.7322C72.8616 36.2011 73.125 36.837 73.125 37.5Z" fill="#4285F4"/>
</g>
<defs>
<clipPath id="clip0_1045_16261">
<rect width="80" height="80" fill="white"/>
</clipPath>
</defs>
</svg>
