<svg width="120" height="26" viewBox="0 0 120 26" fill="none" xmlns="http://www.w3.org/2000/svg">
<g clip-path="url(#clip0_27_2859)">
<path d="M4.63768 0.285706H1.15942C0.51909 0.285706 0 0.79738 0 1.42856V4.85713C0 5.48832 0.51909 5.99999 1.15942 5.99999H4.63768C5.27801 5.99999 5.7971 5.48832 5.7971 4.85713V1.42856C5.7971 0.79738 5.27801 0.285706 4.63768 0.285706Z" fill="#0000D2"/>
<path d="M13.333 0.285706H9.85473C9.2144 0.285706 8.69531 0.79738 8.69531 1.42856V4.85713C8.69531 5.48832 9.2144 5.99999 9.85473 5.99999H13.333C13.9733 5.99999 14.4924 5.48832 14.4924 4.85713V1.42856C14.4924 0.79738 13.9733 0.285706 13.333 0.285706Z" fill="#0000D2"/>
<path d="M13.333 8.85712H9.85473C9.2144 8.85712 8.69531 9.36879 8.69531 9.99997V13.4285C8.69531 14.0597 9.2144 14.5714 9.85473 14.5714H13.333C13.9733 14.5714 14.4924 14.0597 14.4924 13.4285V9.99997C14.4924 9.36879 13.9733 8.85712 13.333 8.85712Z" fill="#0000D2"/>
<path d="M13.333 17.4286H9.85473C9.2144 17.4286 8.69531 17.9403 8.69531 18.5714V22C8.69531 22.6312 9.2144 23.1429 9.85473 23.1429H13.333C13.9733 23.1429 14.4924 22.6312 14.4924 22V18.5714C14.4924 17.9403 13.9733 17.4286 13.333 17.4286Z" fill="#0000D2"/>
<path d="M23.4784 20.2857C23.4784 22.0202 22.0496 23.4286 20.29 23.4286C18.5303 23.4286 17.1016 22.0202 17.1016 20.2857C17.1016 18.5512 18.5303 17.1429 20.29 17.1429C22.0496 17.1429 23.4784 18.5512 23.4784 20.2857Z" fill="#FA782D"/>
<path d="M23.4784 3.14286C23.4784 4.87736 22.0496 6.28571 20.29 6.28571C18.5303 6.28571 17.1016 4.87736 17.1016 3.14286C17.1016 1.40836 18.5303 0 20.29 0C22.0496 0 23.4784 1.40836 23.4784 3.14286Z" fill="#FA782D"/>
<path d="M54.4562 5.46157C55.5527 5.46157 56.4417 4.58533 56.4417 3.50443C56.4417 2.42353 55.5527 1.54729 54.4562 1.54729C53.3596 1.54729 52.4707 2.42353 52.4707 3.50443C52.4707 4.58533 53.3596 5.46157 54.4562 5.46157Z" fill="#0000D2"/>
<path d="M35.6439 4.81383H30.1863C29.3854 4.81383 28.9854 4.43284 28.9854 3.66949V2.8878C28.9854 2.1061 29.3854 1.71549 30.1863 1.71549H44.7602C45.5407 1.71549 45.9313 2.1061 45.9313 2.8878V3.66949C45.9313 4.43284 45.5407 4.81383 44.7602 4.81383H39.3016V20.5302C39.3016 21.3201 38.9016 21.7149 38.1016 21.7149H36.816C36.0346 21.7149 35.6439 21.3201 35.6439 20.5302V4.81383Z" fill="#0000D2"/>
<path d="M42.3249 8.53202C42.3249 7.74346 42.7156 7.34917 43.497 7.34917H44.6114C45.4114 7.34917 45.8114 7.74346 45.8114 8.53202V9.88405C45.8114 10.0349 45.8068 10.166 45.7975 10.2783C45.7873 10.3911 45.7733 10.4947 45.7547 10.5883C45.7352 10.6827 45.7259 10.7762 45.7259 10.8702H45.7826C45.9166 10.4383 46.1166 10.0065 46.3835 9.57413C46.6496 9.14271 46.9686 8.75301 47.3407 8.40549C47.7119 8.05797 48.1212 7.77646 48.5696 7.56007C49.017 7.34459 49.4979 7.23639 50.0124 7.23639C50.4124 7.23639 50.6933 7.33496 50.8551 7.5321C51.017 7.72924 51.0979 8.02496 51.0979 8.41924V9.51774C51.0979 10.3068 50.6886 10.701 49.8691 10.701C49.2021 10.701 48.6217 10.8514 48.1268 11.1517C47.631 11.4525 47.2217 11.8468 46.8979 12.3346C46.5733 12.8233 46.3305 13.3771 46.1686 13.9965C46.0068 14.6164 45.9259 15.255 45.9259 15.912V20.532C45.9259 21.3206 45.5352 21.7149 44.7547 21.7149H43.497C42.7156 21.7149 42.3249 21.3206 42.3249 20.532V8.53202Z" fill="#0000D2"/>
<path d="M52.6485 8.53202C52.6485 7.74346 53.0392 7.34917 53.8206 7.34917H55.0783C55.8587 7.34917 56.2494 7.74346 56.2494 8.53202V20.532C56.2494 21.3206 55.8587 21.7149 55.0783 21.7149H53.8206C53.0392 21.7149 52.6485 21.3206 52.6485 20.532V8.53202Z" fill="#0000D2"/>
<path d="M58.0011 8.53202C58.0011 7.74346 58.4011 7.34917 59.202 7.34917H60.1164C60.4969 7.34917 60.788 7.44316 60.988 7.63067C61.188 7.81864 61.2876 8.05338 61.2876 8.33488V8.9827C61.2876 9.07715 61.2829 9.15188 61.2736 9.20827C61.2634 9.26466 61.2587 9.32059 61.2587 9.37699V9.54616H61.3164C61.5825 9.07715 61.935 8.65444 62.3741 8.27849C62.7545 7.95939 63.2401 7.66872 63.8308 7.4051C64.4215 7.1424 65.1452 7.01082 66.0029 7.01082C66.9936 7.01082 67.8885 7.19421 68.6894 7.56007C69.4894 7.92638 70.1703 8.44308 70.7322 9.1097C71.294 9.77631 71.7275 10.5699 72.0326 11.4896C72.3368 12.4102 72.4894 13.4239 72.4894 14.532C72.4894 15.6777 72.3229 16.7107 71.9899 17.6304C71.6559 18.551 71.1899 19.3395 70.5899 19.9965C69.9889 20.654 69.2792 21.161 68.4606 21.5177C67.641 21.8744 66.7555 22.0528 65.8029 22.0528C65.041 22.0528 64.3927 21.9404 63.8597 21.7149C63.3257 21.4893 62.8978 21.2362 62.5741 20.9543C62.1731 20.6352 61.8494 20.2689 61.602 19.8558H61.5452C61.5452 19.9498 61.5545 20.0626 61.5731 20.1937C61.5927 20.3065 61.6066 20.438 61.6159 20.588C61.6262 20.7388 61.6308 20.9075 61.6308 21.095V24.8171C61.6308 25.6057 61.2308 26 60.4308 26H59.202C58.4011 26 58.0011 25.6057 58.0011 24.8171V8.53202ZM61.5164 14.6164C61.5164 15.1798 61.5927 15.7245 61.7452 16.2504C61.8969 16.7762 62.1257 17.2457 62.4308 17.6588C62.735 18.0719 63.1164 18.4052 63.5741 18.6587C64.0308 18.9123 64.5545 19.0388 65.1452 19.0388C65.641 19.0388 66.1127 18.9402 66.5601 18.7431C67.0076 18.5459 67.3982 18.2598 67.7322 17.8839C68.0652 17.5084 68.3266 17.044 68.5173 16.4897C68.708 15.9359 68.8038 15.3023 68.8038 14.5884C68.8038 13.2176 68.4699 12.1237 67.8029 11.3067C67.1359 10.4897 66.2699 10.0812 65.2029 10.0812C64.7266 10.0812 64.269 10.1706 63.8308 10.3489C63.3927 10.5277 63.002 10.7996 62.6597 11.1659C62.3164 11.5318 62.0401 12.0017 61.8308 12.5744C61.6206 13.1474 61.5164 13.8278 61.5164 14.6164Z" fill="#0000D2"/>
<path d="M101.317 5.29337C100.535 5.29337 100.145 4.90872 100.145 4.13849L100.159 2.89834C100.159 2.10977 100.55 1.71549 101.331 1.71549H102.589C103.389 1.71549 103.789 2.10977 103.789 2.89834L103.774 4.13849C103.774 4.90872 103.374 5.29337 102.574 5.29337H101.317Z" fill="#0000D2"/>
<path d="M100.159 8.53202C100.159 7.74346 100.55 7.34917 101.331 7.34917H102.589C103.369 7.34917 103.76 7.74346 103.76 8.53202V20.532C103.76 21.3206 103.369 21.7149 102.589 21.7149H101.331C100.55 21.7149 100.159 21.3206 100.159 20.532V8.53202Z" fill="#0000D2"/>
<path d="M105.512 8.53202C105.512 7.74346 105.912 7.34917 106.712 7.34917H107.627C108.007 7.34917 108.298 7.44316 108.498 7.63067C108.698 7.81864 108.798 8.05338 108.798 8.33488V8.9827C108.798 9.07715 108.793 9.15188 108.784 9.20827C108.774 9.26466 108.769 9.32059 108.769 9.37699V9.54616H108.827C109.093 9.07715 109.445 8.65444 109.885 8.27849C110.265 7.95939 110.751 7.66872 111.341 7.4051C111.932 7.1424 112.656 7.01082 113.513 7.01082C114.504 7.01082 115.399 7.19421 116.2 7.56007C117 7.92638 117.681 8.44308 118.243 9.1097C118.804 9.77631 119.238 10.5699 119.543 11.4896C119.847 12.4102 120 13.4239 120 14.532C120 15.6777 119.833 16.7107 119.5 17.6304C119.166 18.551 118.7 19.3395 118.1 19.9965C117.499 20.654 116.79 21.161 115.971 21.5177C115.151 21.8744 114.266 22.0528 113.313 22.0528C112.551 22.0528 111.903 21.9404 111.37 21.7149C110.836 21.4893 110.408 21.2362 110.085 20.9543C109.684 20.6352 109.36 20.2689 109.112 19.8558H109.056C109.056 19.9498 109.065 20.0626 109.084 20.1937C109.103 20.3065 109.117 20.438 109.126 20.588C109.137 20.7388 109.141 20.9075 109.141 21.095V24.8171C109.141 25.6057 108.741 26 107.941 26H106.712C105.912 26 105.512 25.6057 105.512 24.8171V8.53202ZM109.027 14.6164C109.027 15.1798 109.103 15.7245 109.256 16.2504C109.407 16.7762 109.636 17.2457 109.941 17.6588C110.245 18.0719 110.627 18.4052 111.085 18.6587C111.541 18.9123 112.065 19.0388 112.656 19.0388C113.151 19.0388 113.623 18.9402 114.071 18.7431C114.518 18.5459 114.909 18.2598 115.243 17.8839C115.576 17.5084 115.837 17.044 116.028 16.4897C116.218 15.9359 116.314 15.3023 116.314 14.5884C116.314 13.2176 115.98 12.1237 115.313 11.3067C114.646 10.4897 113.78 10.0812 112.713 10.0812C112.237 10.0812 111.779 10.1706 111.341 10.3489C110.903 10.5277 110.512 10.7996 110.17 11.1659C109.827 11.5318 109.551 12.0017 109.341 12.5744C109.131 13.1474 109.027 13.8278 109.027 14.6164Z" fill="#0000D2"/>
<path d="M73.6593 11.6304C73.6593 10.1848 73.916 8.83737 74.4304 7.58849C74.9449 6.33962 75.6639 5.25534 76.5886 4.33519C77.5123 3.41504 78.6118 2.69203 79.889 2.16616C81.1653 1.6403 82.5746 1.37714 84.1178 1.37714C84.9374 1.37714 85.6946 1.44774 86.3904 1.58849C87.0853 1.72924 87.7085 1.89842 88.262 2.09556C88.8136 2.2927 89.3002 2.50864 89.7188 2.74338C90.1383 2.97857 90.4806 3.18993 90.7476 3.37744C91.3197 3.80932 91.395 4.35398 90.9764 5.01097L90.462 5.82797C90.0806 6.44782 89.5383 6.5418 88.8332 6.10947C88.395 5.82797 87.7857 5.52308 87.0044 5.1939C86.223 4.86564 85.3085 4.70105 84.2611 4.70105C83.156 4.70105 82.1792 4.88443 81.3318 5.25029C80.4844 5.61661 79.7746 6.11451 79.2025 6.74353C78.6314 7.37255 78.1979 8.10519 77.903 8.94052C77.6072 9.77631 77.4602 10.6543 77.4602 11.5744C77.4602 12.5134 77.6118 13.4147 77.9169 14.2785C78.2211 15.1422 78.6648 15.9029 79.2462 16.5598C79.8267 17.2177 80.5411 17.7432 81.3895 18.1374C82.2369 18.5317 83.2034 18.7289 84.2899 18.7289C84.8611 18.7289 85.3988 18.6683 85.9039 18.5459C86.409 18.424 86.8713 18.2782 87.2899 18.1095C87.7085 17.9403 88.0853 17.7528 88.4192 17.546C88.7522 17.3397 89.0332 17.1517 89.262 16.9825C89.929 16.4943 90.4806 16.5598 90.9197 17.1797L91.4909 17.9403C91.9485 18.5413 91.8908 19.086 91.3197 19.5743C91.0341 19.7994 90.6667 20.058 90.2192 20.3486C89.7718 20.6402 89.2481 20.9121 88.6471 21.1656C88.0471 21.4192 87.3709 21.6305 86.6183 21.7992C85.8658 21.9684 85.0416 22.0528 84.1467 22.0528C82.5467 22.0528 81.103 21.7855 79.8174 21.25C78.5318 20.715 77.4314 19.9823 76.5169 19.053C75.6025 18.1232 74.8974 17.0206 74.4025 15.7433C73.9067 14.4665 73.6593 13.0952 73.6593 11.6304Z" fill="#0000D2"/>
<path d="M93.0916 2.89834C93.0916 2.10977 93.4814 1.71549 94.2628 1.71549H95.5205C96.3009 1.71549 96.6916 2.10977 96.6916 2.89834V16.9546C96.6916 17.3113 96.7251 17.5978 96.7921 17.8138C96.8581 18.0297 96.9493 18.1989 97.0637 18.3204C97.1781 18.4428 97.3018 18.5276 97.4349 18.5739C97.5679 18.6211 97.7018 18.6541 97.8349 18.6725C98.1018 18.7105 98.3158 18.8091 98.4777 18.9686C98.6395 19.1282 98.7204 19.3675 98.7204 19.6866V20.6444C98.7204 21.0203 98.6302 21.316 98.4497 21.532C98.2683 21.7474 97.9586 21.8556 97.5204 21.8556C97.0246 21.8556 96.5204 21.8084 96.006 21.7149C95.4916 21.6214 95.0153 21.4146 94.5772 21.095C94.1391 20.7759 93.7819 20.3115 93.5056 19.7008C93.2293 19.0906 93.0916 18.269 93.0916 17.2361V2.89834Z" fill="#0000D2"/>
</g>
<defs>
<clipPath id="clip0_27_2859">
<rect width="120" height="26" fill="white"/>
</clipPath>
</defs>
</svg>
