<svg width="16" height="16" viewBox="0 0 16 16" fill="none" xmlns="http://www.w3.org/2000/svg">
<path d="M14.6663 7.00002L8.58801 1.8814C8.42334 1.74273 8.21494 1.66669 7.99967 1.66669C7.78441 1.66669 7.57601 1.74273 7.41134 1.8814L1.33301 7.00002" stroke="#757E8A" stroke-linecap="round" stroke-linejoin="round"/>
<path d="M13.6663 3.33331V13C13.6663 13.7364 13.0694 14.3333 12.333 14.3333H3.66634C2.92996 14.3333 2.33301 13.7364 2.33301 13V6.33331" stroke="#757E8A" stroke-linecap="round" stroke-linejoin="round"/>
<path d="M6.99967 7.66669H6.33301V8.33335H6.99967V7.66669Z" stroke="#757E8A" stroke-linecap="round" stroke-linejoin="round"/>
<path d="M9.66667 7.66669H9V8.33335H9.66667V7.66669Z" stroke="#757E8A" stroke-linecap="round" stroke-linejoin="round"/>
<path d="M6.99967 10.3333H6.33301V11H6.99967V10.3333Z" stroke="#757E8A" stroke-linecap="round" stroke-linejoin="round"/>
<path d="M9.66667 10.3333H9V11H9.66667V10.3333Z" stroke="#757E8A" stroke-linecap="round" stroke-linejoin="round"/>
</svg>
