<svg width="158" height="160" viewBox="0 0 158 160" fill="none" xmlns="http://www.w3.org/2000/svg">
<g clip-path="url(#clip0_1056_18794)">
<path d="M31.2099 59.9999H7.80247C3.49328 59.9999 0 63.4943 0 67.8048V91.2195C0 95.53 3.49328 99.0243 7.80247 99.0243H31.2099C35.5191 99.0243 39.0123 95.53 39.0123 91.2195V67.8048C39.0123 63.4943 35.5191 59.9999 31.2099 59.9999Z" fill="white"/>
<path d="M89.7294 60H66.322C62.0128 60 58.5195 63.4944 58.5195 67.8049V91.2195C58.5195 95.53 62.0128 99.0244 66.322 99.0244H89.7294C94.0386 99.0244 97.5319 95.53 97.5319 91.2195V67.8049C97.5319 63.4944 94.0386 60 89.7294 60Z" fill="white"/>
<path d="M31.2099 120H7.80247C3.49328 120 0 123.494 0 127.805V151.22C0 155.53 3.49328 159.024 7.80247 159.024H31.2099C35.5191 159.024 39.0123 155.53 39.0123 151.22V127.805C39.0123 123.494 35.5191 120 31.2099 120Z" fill="white"/>
<path d="M146.175 120H122.767C118.458 120 114.965 123.494 114.965 127.805V151.22C114.965 155.53 118.458 159.024 122.767 159.024H146.175C150.484 159.024 153.977 155.53 153.977 151.22V127.805C153.977 123.494 150.484 120 146.175 120Z" fill="white"/>
<path d="M157.878 81.4634C157.878 93.3088 148.263 102.927 136.422 102.927C124.58 102.927 114.965 93.3088 114.965 81.4634C114.965 69.618 124.58 60 136.422 60C148.263 60 157.878 69.618 157.878 81.4634Z" fill="#FA782D"/>
<path d="M102.895 21.4634C102.895 33.3088 93.28 42.9268 81.4382 42.9268C69.5965 42.9268 59.9814 33.3088 59.9814 21.4634C59.9814 9.61803 69.5965 0 81.4382 0C93.28 0 102.895 9.61803 102.895 21.4634Z" fill="#FA782D"/>
</g>
<defs>
<clipPath id="clip0_1056_18794">
<rect width="158" height="160" fill="white"/>
</clipPath>
</defs>
</svg>
