<svg width="158" height="160" viewBox="0 0 158 160" fill="none" xmlns="http://www.w3.org/2000/svg">
<g clip-path="url(#clip0_1056_18755)">
<path d="M31.2099 1.95123H7.80247C3.49328 1.95123 0 5.4456 0 9.75611V33.1707C0 37.4813 3.49328 40.9756 7.80247 40.9756H31.2099C35.5191 40.9756 39.0123 37.4813 39.0123 33.1707V9.75611C39.0123 5.4456 35.5191 1.95123 31.2099 1.95123Z" fill="white"/>
<path d="M89.7294 60H66.322C62.0128 60 58.5195 63.4944 58.5195 67.8049V91.2195C58.5195 95.53 62.0128 99.0244 66.322 99.0244H89.7294C94.0386 99.0244 97.5319 95.53 97.5319 91.2195V67.8049C97.5319 63.4944 94.0386 60 89.7294 60Z" fill="white"/>
<path d="M31.2099 60.4877H7.80247C3.49328 60.4877 0 63.982 0 68.2925V91.7072C0 96.0177 3.49328 99.5121 7.80247 99.5121H31.2099C35.5191 99.5121 39.0123 96.0177 39.0123 91.7072V68.2925C39.0123 63.982 35.5191 60.4877 31.2099 60.4877Z" fill="white"/>
<path d="M89.7284 119.024H66.321C62.0118 119.024 58.5186 122.519 58.5186 126.829V150.244C58.5186 154.554 62.0118 158.049 66.321 158.049H89.7284C94.0376 158.049 97.5309 154.554 97.5309 150.244V126.829C97.5309 122.519 94.0376 119.024 89.7284 119.024Z" fill="white"/>
<path d="M158 81.4634C158 93.3088 148.385 102.927 136.543 102.927C124.701 102.927 115.086 93.3088 115.086 81.4634C115.086 69.618 124.701 60 136.543 60C148.385 60 158 69.618 158 81.4634Z" fill="#FA782D"/>
<path d="M102.895 21.4634C102.895 33.3088 93.28 42.9268 81.4382 42.9268C69.5965 42.9268 59.9814 33.3088 59.9814 21.4634C59.9814 9.61803 69.5965 0 81.4382 0C93.28 0 102.895 9.61803 102.895 21.4634Z" fill="#FA782D"/>
</g>
<defs>
<clipPath id="clip0_1056_18755">
<rect width="158" height="160" fill="white"/>
</clipPath>
</defs>
</svg>
