<svg width="158" height="160" viewBox="0 0 158 160" fill="none" xmlns="http://www.w3.org/2000/svg">
<g clip-path="url(#clip0_1056_18729)">
<path d="M31.2099 1.95123H7.80247C3.49328 1.95123 0 5.4456 0 9.75611V33.1707C0 37.4813 3.49328 40.9756 7.80247 40.9756H31.2099C35.5191 40.9756 39.0123 37.4813 39.0123 33.1707V9.75611C39.0123 5.4456 35.5191 1.95123 31.2099 1.95123Z" fill="white"/>
<path d="M89.7294 60H66.322C62.0128 60 58.5195 63.4944 58.5195 67.8049V91.2195C58.5195 95.53 62.0128 99.0244 66.322 99.0244H89.7294C94.0386 99.0244 97.5319 95.53 97.5319 91.2195V67.8049C97.5319 63.4944 94.0386 60 89.7294 60Z" fill="white"/>
<path d="M31.2099 60.4877H7.80247C3.49328 60.4877 0 63.982 0 68.2925V91.7072C0 96.0177 3.49328 99.5121 7.80247 99.5121H31.2099C35.5191 99.5121 39.0123 96.0177 39.0123 91.7072V68.2925C39.0123 63.982 35.5191 60.4877 31.2099 60.4877Z" fill="white"/>
<path d="M89.7284 119.024H66.321C62.0118 119.024 58.5186 122.519 58.5186 126.829V150.244C58.5186 154.554 62.0118 158.049 66.321 158.049H89.7284C94.0376 158.049 97.5309 154.554 97.5309 150.244V126.829C97.5309 122.519 94.0376 119.024 89.7284 119.024Z" fill="white"/>
<path d="M158 138.537C158 150.382 148.385 160 136.543 160C124.701 160 115.086 150.382 115.086 138.537C115.086 126.691 124.701 117.073 136.543 117.073C148.385 117.073 158 126.691 158 138.537Z" fill="#FA782D"/>
<path d="M158 21.4634C158 33.3088 148.385 42.9268 136.543 42.9268C124.701 42.9268 115.086 33.3088 115.086 21.4634C115.086 9.61803 124.701 0 136.543 0C148.385 0 158 9.61803 158 21.4634Z" fill="#FA782D"/>
</g>
<defs>
<clipPath id="clip0_1056_18729">
<rect width="158" height="160" fill="white"/>
</clipPath>
</defs>
</svg>
