<svg width="24" height="24" viewBox="0 0 24 24" fill="none" xmlns="http://www.w3.org/2000/svg">
<path d="M4.63768 0.285706H1.15942C0.51909 0.285706 0 0.79738 0 1.42856V4.85713C0 5.48832 0.51909 5.99999 1.15942 5.99999H4.63768C5.27801 5.99999 5.7971 5.48832 5.7971 4.85713V1.42856C5.7971 0.79738 5.27801 0.285706 4.63768 0.285706Z" fill="#0000D2"/>
<path d="M13.333 0.285706H9.85473C9.2144 0.285706 8.69531 0.79738 8.69531 1.42856V4.85713C8.69531 5.48832 9.2144 5.99999 9.85473 5.99999H13.333C13.9733 5.99999 14.4924 5.48832 14.4924 4.85713V1.42856C14.4924 0.79738 13.9733 0.285706 13.333 0.285706Z" fill="#0000D2"/>
<path d="M13.333 8.85712H9.85473C9.2144 8.85712 8.69531 9.36879 8.69531 9.99997V13.4285C8.69531 14.0597 9.2144 14.5714 9.85473 14.5714H13.333C13.9733 14.5714 14.4924 14.0597 14.4924 13.4285V9.99997C14.4924 9.36879 13.9733 8.85712 13.333 8.85712Z" fill="#0000D2"/>
<path d="M13.333 17.4286H9.85473C9.2144 17.4286 8.69531 17.9403 8.69531 18.5714V22C8.69531 22.6312 9.2144 23.1429 9.85473 23.1429H13.333C13.9733 23.1429 14.4924 22.6312 14.4924 22V18.5714C14.4924 17.9403 13.9733 17.4286 13.333 17.4286Z" fill="#0000D2"/>
<path d="M23.4784 20.2857C23.4784 22.0202 22.0496 23.4286 20.29 23.4286C18.5303 23.4286 17.1016 22.0202 17.1016 20.2857C17.1016 18.5512 18.5303 17.1429 20.29 17.1429C22.0496 17.1429 23.4784 18.5512 23.4784 20.2857Z" fill="#FA782D"/>
<path d="M23.4784 3.14286C23.4784 4.87736 22.0496 6.28571 20.29 6.28571C18.5303 6.28571 17.1016 4.87736 17.1016 3.14286C17.1016 1.40836 18.5303 0 20.29 0C22.0496 0 23.4784 1.40836 23.4784 3.14286Z" fill="#FA782D"/>
</svg>
