<svg width="16" height="16" viewBox="0 0 16 16" fill="none" xmlns="http://www.w3.org/2000/svg">
<path d="M13.5999 13.6L14.6666 14.6667M14.1333 11.7333C14.1333 10.4079 13.0587 9.33333 11.7333 9.33333C10.4078 9.33333 9.33325 10.4079 9.33325 11.7333C9.33325 13.0588 10.4078 14.1333 11.7333 14.1333C13.0587 14.1333 14.1333 13.0588 14.1333 11.7333Z" stroke="#757E8A" stroke-linecap="round" stroke-linejoin="round"/>
<path d="M7.33325 12.3333L5.33325 11.3333L2.21074 12.3742C1.77905 12.5181 1.33325 12.1967 1.33325 11.7417V3.74535C1.33325 3.49284 1.47592 3.262 1.70178 3.14907L5.0567 1.47161C5.23209 1.38391 5.43721 1.37789 5.61745 1.45513L9.99992 3.33333H13.9999C14.3681 3.33333 14.6666 3.63181 14.6666 4V7.66667" stroke="#757E8A" stroke-linecap="round" stroke-linejoin="round"/>
<path d="M5.33325 1.33333V11.3333" stroke="#757E8A" stroke-linejoin="round"/>
<path d="M10 3.33333V7.66666" stroke="#757E8A" stroke-linecap="round" stroke-linejoin="round"/>
</svg>
