<svg width="16" height="16" viewBox="0 0 16 16" fill="none" xmlns="http://www.w3.org/2000/svg">
<path fill-rule="evenodd" clip-rule="evenodd" d="M7.11878 1.96958C7.55538 1.12122 8.77925 1.12122 9.21585 1.96958L10.6869 4.8282C10.7113 4.87563 10.7571 4.90864 10.8102 4.91702L14.0077 5.42134C14.9561 5.57093 15.3341 6.72184 14.6558 7.39531L12.3668 9.66831C12.3288 9.70598 12.3114 9.75924 12.3198 9.81178L12.8243 12.9841C12.9739 13.9243 11.9839 14.6359 11.1277 14.2039L8.24365 12.7489C8.19572 12.7247 8.13892 12.7247 8.09098 12.7489L5.207 14.2039C4.35068 14.6359 3.36081 13.9243 3.51034 12.9841L4.01488 9.81178C4.02323 9.75924 4.00576 9.70598 3.96784 9.66831L1.67877 7.39531C1.0006 6.72184 1.37852 5.57093 2.32692 5.42134L5.52443 4.91702C5.57752 4.90864 5.62336 4.87563 5.64778 4.8282L7.11878 1.96958Z" fill="#757E8A"/>
</svg>
