<svg width="160" height="160" viewBox="0 0 160 160" fill="none" xmlns="http://www.w3.org/2000/svg">
<path d="M56.666 16.6667H29.9993C22.6355 16.6667 16.666 22.6362 16.666 30V56.6667M103.333 16.6667H129.999C137.363 16.6667 143.333 22.6362 143.333 30V56.6667M103.333 143.333H129.999C137.363 143.333 143.333 137.364 143.333 130V103.333M56.666 143.333H29.9993C22.6355 143.333 16.666 137.364 16.666 130V103.333" stroke="#757E8A" stroke-width="3" stroke-linecap="round" stroke-linejoin="round"/>
<path d="M53.334 113.333C65.5904 96.0307 94.126 95.0867 106.667 113.333M96.6673 63.3333C96.6673 72.538 89.2053 80 80.0007 80C70.796 80 63.334 72.538 63.334 63.3333C63.334 54.1286 70.796 46.6667 80.0007 46.6667C89.2053 46.6667 96.6673 54.1286 96.6673 63.3333Z" stroke="#757E8A" stroke-width="3" stroke-linecap="round"/>
</svg>
