<svg width="32" height="32" viewBox="0 0 32 32" fill="none" xmlns="http://www.w3.org/2000/svg">
<g clip-path="url(#clip0_1045_16616)">
<path d="M6.2439 0.390259H1.56098C0.698873 0.390259 0 1.08913 0 1.95123V6.63416C0 7.49626 0.698873 8.19514 1.56098 8.19514H6.2439C7.10601 8.19514 7.80488 7.49626 7.80488 6.63416V1.95123C7.80488 1.08913 7.10601 0.390259 6.2439 0.390259Z" fill="#0000D2"/>
<path d="M17.9509 12H13.268C12.4059 12 11.707 12.6989 11.707 13.561V18.2439C11.707 19.106 12.4059 19.8049 13.268 19.8049H17.9509C18.813 19.8049 19.5119 19.106 19.5119 18.2439V13.561C19.5119 12.6989 18.813 12 17.9509 12Z" fill="#0000D2"/>
<path d="M6.2439 12.0975H1.56098C0.698873 12.0975 0 12.7964 0 13.6585V18.3414C0 19.2035 0.698873 19.9024 1.56098 19.9024H6.2439C7.10601 19.9024 7.80488 19.2035 7.80488 18.3414V13.6585C7.80488 12.7964 7.10601 12.0975 6.2439 12.0975Z" fill="#0000D2"/>
<path d="M17.9509 23.8049H13.268C12.4059 23.8049 11.707 24.5037 11.707 25.3658V30.0488C11.707 30.9109 12.4059 31.6097 13.268 31.6097H17.9509C18.813 31.6097 19.5119 30.9109 19.5119 30.0488V25.3658C19.5119 24.5037 18.813 23.8049 17.9509 23.8049Z" fill="#0000D2"/>
<path d="M31.6088 27.7073C31.6088 30.0764 29.6852 32 27.3161 32C24.947 32 23.0234 30.0764 23.0234 27.7073C23.0234 25.3382 24.947 23.4146 27.3161 23.4146C29.6852 23.4146 31.6088 25.3382 31.6088 27.7073Z" fill="#FA782D"/>
<path d="M31.6088 4.29268C31.6088 6.66176 29.6852 8.58537 27.3161 8.58537C24.947 8.58537 23.0234 6.66176 23.0234 4.29268C23.0234 1.92361 24.947 0 27.3161 0C29.6852 0 31.6088 1.92361 31.6088 4.29268Z" fill="#FA782D"/>
</g>
<defs>
<clipPath id="clip0_1045_16616">
<rect width="31.6098" height="32" fill="white"/>
</clipPath>
</defs>
</svg>
