<svg width="32" height="32" viewBox="0 0 32 32" fill="none" xmlns="http://www.w3.org/2000/svg">
<g clip-path="url(#clip0_1045_16651)">
<path d="M6.2439 12H1.56098C0.698873 12 0 12.6989 0 13.561V18.2439C0 19.106 0.698873 19.8049 1.56098 19.8049H6.2439C7.10601 19.8049 7.80488 19.106 7.80488 18.2439V13.561C7.80488 12.6989 7.10601 12 6.2439 12Z" fill="#0000D2"/>
<path d="M17.9509 12H13.268C12.4059 12 11.707 12.6989 11.707 13.561V18.2439C11.707 19.106 12.4059 19.8049 13.268 19.8049H17.9509C18.813 19.8049 19.5119 19.106 19.5119 18.2439V13.561C19.5119 12.6989 18.813 12 17.9509 12Z" fill="#0000D2"/>
<path d="M6.2439 24H1.56098C0.698873 24 0 24.6989 0 25.561V30.2439C0 31.106 0.698873 31.8049 1.56098 31.8049H6.2439C7.10601 31.8049 7.80488 31.106 7.80488 30.2439V25.561C7.80488 24.6989 7.10601 24 6.2439 24Z" fill="#0000D2"/>
<path d="M29.2439 24H24.561C23.6989 24 23 24.6989 23 25.561V30.2439C23 31.106 23.6989 31.8049 24.561 31.8049H29.2439C30.106 31.8049 30.8049 31.106 30.8049 30.2439V25.561C30.8049 24.6989 30.106 24 29.2439 24Z" fill="#0000D2"/>
<path d="M31.5854 16.2927C31.5854 18.6618 29.6618 20.5854 27.2927 20.5854C24.9236 20.5854 23 18.6618 23 16.2927C23 13.9236 24.9236 12 27.2927 12C29.6618 12 31.5854 13.9236 31.5854 16.2927Z" fill="#FA782D"/>
<path d="M20.5854 4.29268C20.5854 6.66176 18.6618 8.58537 16.2927 8.58537C13.9236 8.58537 12 6.66176 12 4.29268C12 1.92361 13.9236 0 16.2927 0C18.6618 0 20.5854 1.92361 20.5854 4.29268Z" fill="#FA782D"/>
</g>
<defs>
<clipPath id="clip0_1045_16651">
<rect width="31.6098" height="32" fill="white"/>
</clipPath>
</defs>
</svg>
