<svg width="16" height="16" viewBox="0 0 16 16" fill="none" xmlns="http://www.w3.org/2000/svg">
<path d="M11.3333 13.3334C12.0697 13.3334 12.6667 12.7365 12.6667 12.0001C12.6667 11.2637 12.0697 10.6667 11.3333 10.6667C10.597 10.6667 10 11.2637 10 12.0001C10 12.7365 10.597 13.3334 11.3333 13.3334Z" stroke="#757E8A" stroke-linecap="round" stroke-linejoin="round"/>
<path d="M6.00065 12.0001C6.00065 12.7365 5.4037 13.3334 4.66732 13.3334C3.93094 13.3334 3.33398 12.7365 3.33398 12.0001C3.33398 11.2637 3.93094 10.6667 4.66732 10.6667C5.4037 10.6667 6.00065 11.2637 6.00065 12.0001Z" stroke="#757E8A" stroke-linecap="round" stroke-linejoin="round"/>
<path d="M8.66602 12.0001H9.99935M8.66602 4.66675H11.3585C11.7635 4.66675 12.1466 4.85087 12.3997 5.16715L14.3738 7.63488C14.5629 7.87128 14.666 8.16501 14.666 8.46781V11.3334C14.666 11.7016 14.3675 12.0001 13.9993 12.0001H12.666" stroke="#757E8A" stroke-linecap="round" stroke-linejoin="round"/>
<path d="M6.00065 12.0001H8.66732V3.33341C8.66732 2.96523 8.36885 2.66675 8.00065 2.66675H2.00065C1.63246 2.66675 1.33398 2.96523 1.33398 3.33341V11.3334C1.33398 11.7016 1.63246 12.0001 2.00065 12.0001H3.33398" stroke="#757E8A" stroke-linecap="round" stroke-linejoin="round"/>
<path d="M8.66602 4.66675L9.98035 7.26801C10.2072 7.71701 10.6674 8.00008 11.1704 8.00008H14.3327" stroke="#757E8A" stroke-linecap="round" stroke-linejoin="round"/>
</svg>
