<svg width="16" height="16" viewBox="0 0 16 16" fill="none" xmlns="http://www.w3.org/2000/svg">
<path d="M8 2.66675L9.66473 6.82861C9.8672 7.33481 10.3575 7.66675 10.9027 7.66675H14.3333" stroke="#757E8A" stroke-linecap="round" stroke-linejoin="round"/>
<path d="M14.666 9.66675H13.666" stroke="#757E8A" stroke-linecap="round" stroke-linejoin="round"/>
<path d="M11.3333 13.3334C12.0697 13.3334 12.6667 12.7365 12.6667 12.0001C12.6667 11.2637 12.0697 10.6667 11.3333 10.6667C10.5969 10.6667 10 11.2637 10 12.0001C10 12.7365 10.5969 13.3334 11.3333 13.3334Z" stroke="#757E8A" stroke-linecap="round" stroke-linejoin="round"/>
<path d="M4.66732 13.3334C5.4037 13.3334 6.00065 12.7365 6.00065 12.0001C6.00065 11.2637 5.4037 10.6667 4.66732 10.6667C3.93094 10.6667 3.33398 11.2637 3.33398 12.0001C3.33398 12.7365 3.93094 13.3334 4.66732 13.3334Z" stroke="#757E8A" stroke-linecap="round" stroke-linejoin="round"/>
<path d="M3.33398 12.0001H2.53584C2.40422 12.0001 2.27554 11.9611 2.16604 11.8881L1.63085 11.5313C1.44538 11.4077 1.33398 11.1995 1.33398 10.9766V7.66675H8.00065M8.00065 7.66675V12.0001M8.00065 7.66675V2.66675H9.88278C10.367 2.66675 10.8132 2.92927 11.0483 3.35255L12.2178 5.45762C12.2947 5.59593 12.3955 5.71947 12.5156 5.82244L13.9689 7.06808C14.4122 7.44808 14.6673 8.00275 14.6673 8.58661V11.3334C14.6673 11.7016 14.3689 12.0001 14.0007 12.0001H12.6673M8.00065 12.0001H6.00065M8.00065 12.0001H10.0007" stroke="#757E8A" stroke-linecap="round" stroke-linejoin="round"/>
</svg>
