<svg width="20" height="20" viewBox="0 0 20 20" fill="none" xmlns="http://www.w3.org/2000/svg">
<path d="M17.5 9.20933V5.10279C17.5 4.45696 17.0121 3.92093 16.3792 3.81093C13.8292 3.36765 11.7122 2.38151 10.6793 1.8347C10.2564 1.61076 9.74358 1.61076 9.32067 1.8347C8.28785 2.38151 6.17085 3.36765 3.62074 3.81093C2.98793 3.92093 2.5 4.45696 2.5 5.10279V9.20933C2.5 14.5663 7.94802 17.4883 9.55742 18.2347C9.84142 18.3663 10.1586 18.3663 10.4426 18.2347C12.052 17.4883 17.5 14.5663 17.5 9.20933Z" stroke="#757E8A" stroke-width="1.5" stroke-linecap="round"/>
<path d="M7.5 10L9.16667 11.6667L12.5 7.5" stroke="#757E8A" stroke-width="1.5" stroke-linecap="round" stroke-linejoin="round"/>
</svg>
