<svg width="16" height="16" viewBox="0 0 16 16" fill="none" xmlns="http://www.w3.org/2000/svg">
<path fill-rule="evenodd" clip-rule="evenodd" d="M8.61145 0.85913C8.12672 0.602499 7.54125 0.602498 7.05652 0.85913C6.25524 1.28338 4.61372 2.04716 2.64494 2.38939C1.91862 2.51565 1.33398 3.13651 1.33398 3.91549V7.20072C1.33398 9.52792 2.52041 11.3057 3.82874 12.5556C5.13535 13.8039 6.60196 14.565 7.26958 14.8746C7.63018 15.0418 8.03778 15.0418 8.39838 14.8746C9.06598 14.565 10.5326 13.8039 11.8393 12.5556C13.1476 11.3057 14.334 9.52792 14.334 7.20072V3.91549C14.334 3.13651 13.7493 2.51565 13.0231 2.38939C11.0543 2.04716 9.41272 1.28338 8.61145 0.85913ZM10.3546 6.24981C10.5846 5.9623 10.538 5.54278 10.2505 5.31277C9.96292 5.08276 9.54338 5.12938 9.31338 5.41688L7.11205 8.16859L6.30539 7.36192C6.04504 7.10159 5.62293 7.10159 5.36258 7.36192C5.10223 7.62232 5.10223 8.04439 5.36258 8.30472L6.69592 9.63806C6.82998 9.77219 7.01485 9.84279 7.20418 9.83232C7.39352 9.82186 7.56945 9.73119 7.68792 9.58312L10.3546 6.24981Z" fill="#FA782D"/>
</svg>
