<svg width="16" height="16" viewBox="0 0 16 16" fill="none" xmlns="http://www.w3.org/2000/svg">
<path d="M2.66675 3.33334V6.00001C2.66675 6.36819 2.96521 6.66667 3.33341 6.66667H12.6667C13.0349 6.66667 13.3334 6.36819 13.3334 6.00001V3.33334C13.3334 2.96515 13.0349 2.66667 12.6667 2.66667H3.33341C2.96521 2.66667 2.66675 2.96515 2.66675 3.33334Z" stroke="#757E8A" stroke-linejoin="round"/>
<path d="M2.66675 9.99999V12.6667C2.66675 13.0349 2.96521 13.3333 3.33341 13.3333H12.6667C13.0349 13.3333 13.3334 13.0349 13.3334 12.6667V9.99999C13.3334 9.63179 13.0349 9.33333 12.6667 9.33333H3.33341C2.96521 9.33333 2.66675 9.63179 2.66675 9.99999Z" stroke="#757E8A" stroke-linejoin="round"/>
</svg>
