<svg width="16" height="16" viewBox="0 0 16 16" fill="none" xmlns="http://www.w3.org/2000/svg">
<path d="M11.334 3C11.334 3.55229 10.8863 4 10.334 4C9.78172 4 9.33398 3.55229 9.33398 3C9.33398 2.44771 9.78172 2 10.334 2C10.8863 2 11.334 2.44771 11.334 3Z" stroke="#757E8A" stroke-linecap="round" stroke-linejoin="round"/>
<path d="M10 14.0014L9.55727 12.2574C9.41073 11.6802 9.10767 11.1531 8.68047 10.7324L7.66667 9.73404M7.66667 9.73404C6.9948 9.20478 6.65889 8.94011 6.52875 8.58644C6.47078 8.42884 6.44309 8.26178 6.44713 8.09391C6.45619 7.71718 6.6888 7.35824 7.15393 6.64054L8 5.33507M7.66667 9.73404L10 6.18578M4 7.43644C4.66667 6.12327 5.69178 5.36236 8 5.33507M8 5.33507L8.90267 5.33472C9.1648 5.33461 9.401 5.49061 9.55087 5.70565C9.66167 5.86456 9.81287 6.04545 10 6.18578M10 6.18578C10.7698 6.76304 11.9751 6.99558 13.3333 5.46692" stroke="#757E8A" stroke-linecap="round" stroke-linejoin="round"/>
<path d="M2.66602 11.8203L3.11816 11.9278C4.27044 12.2019 5.46818 11.6777 5.99935 10.6667" stroke="#757E8A" stroke-linecap="round" stroke-linejoin="round"/>
</svg>
