<svg width="16" height="16" viewBox="0 0 16 16" fill="none" xmlns="http://www.w3.org/2000/svg">
<path d="M8 6C9.1046 6 10 5.10457 10 4C10 2.89543 9.1046 2 8 2C6.8954 2 6 2.89543 6 4C6 5.10457 6.8954 6 8 6Z" stroke="#757E8A" stroke-linecap="round" stroke-linejoin="round"/>
<path d="M11.0079 6H4.99204C4.40323 6 3.88413 6.38623 3.71494 6.9502L2.04903 12.5032C2.01652 12.6116 2 12.7241 2 12.8373C2 13.4795 2.52055 14 3.16269 14H12.8373C13.4795 14 14 13.4795 14 12.8373C14 12.7241 13.9835 12.6116 13.9509 12.5032L12.2851 6.9502C12.1159 6.38623 11.5968 6 11.0079 6Z" stroke="#757E8A" stroke-linecap="round" stroke-linejoin="round"/>
</svg>
